<svg id="visual" viewBox="0 0 400 400" width="400" height="400" xmlns="http://www.w3.org/2000/svg" xmlns:xlink="http://www.w3.org/1999/xlink" version="1.1"><g transform="translate(190.50995686837177 207.95329372340072)"><path d="M81.8 -90.5C99.4 -82.8 102.4 -50.7 103.6 -21.5C104.9 7.6 104.4 33.8 91.5 49.6C78.5 65.4 53.1 70.7 30.9 74.1C8.8 77.4 -10.1 78.6 -22.9 70.6C-35.6 62.6 -42.2 45.4 -53.6 29.2C-65 13 -81.2 -2.1 -84.5 -20.3C-87.7 -38.5 -77.9 -59.9 -61.7 -67.8C-45.4 -75.8 -22.7 -70.4 4.7 -76C32.1 -81.6 64.3 -98.3 81.8 -90.5" fill="#fa7268"></path></g></svg>