<svg id="visual" viewBox="0 0 1080 900" width="1080" height="900" xmlns="http://www.w3.org/2000/svg" xmlns:xlink="http://www.w3.org/1999/xlink" version="1.1"><rect x="0" y="0" width="1080" height="900" fill="#ffffff"></rect><defs><linearGradient id="grad1_0" x1="16.7%" y1="0%" x2="100%" y2="100%"><stop offset="26%" stop-color="#ffffff" stop-opacity="1"></stop><stop offset="74%" stop-color="#ffffff" stop-opacity="1"></stop></linearGradient></defs><defs><linearGradient id="grad2_0" x1="0%" y1="0%" x2="83.3%" y2="100%"><stop offset="26%" stop-color="#ffffff" stop-opacity="1"></stop><stop offset="74%" stop-color="#ffffff" stop-opacity="1"></stop></linearGradient></defs><g transform="translate(1080, 0)"><path d="M0 632.6C-54.7 562.4 -109.3 492.1 -196.3 474C-283.3 455.8 -402.7 489.7 -447.3 447.3C-492 405 -462 286.3 -480.4 199C-498.9 111.7 -565.7 55.9 -632.6 0L0 0Z" fill="#FBAE3C"></path></g><g transform="translate(0, 900)"><path d="M0 -632.6C84.7 -610.8 169.4 -589 223.5 -539.5C277.6 -490.1 301 -412.9 364.9 -364.9C428.8 -316.9 533.1 -298 584.5 -242.1C635.8 -186.1 634.2 -93.1 632.6 0L0 0Z" fill="#FBAE3C"></path></g></svg>