<svg id="visual" viewBox="0 0 1000 600" width="1000" height="600" xmlns="http://www.w3.org/2000/svg" xmlns:xlink="http://www.w3.org/1999/xlink" version="1.1"><rect x="0" y="0" width="1000" height="600" fill="#ffffff"></rect><defs><linearGradient id="grad1_0" x1="40%" y1="0%" x2="100%" y2="100%"><stop offset="16.666666666666664%" stop-color="#ffffff" stop-opacity="1"></stop><stop offset="83.33333333333334%" stop-color="#ffffff" stop-opacity="1"></stop></linearGradient></defs><defs><linearGradient id="grad2_0" x1="0%" y1="0%" x2="60%" y2="100%"><stop offset="16.666666666666664%" stop-color="#ffffff" stop-opacity="1"></stop><stop offset="83.33333333333334%" stop-color="#ffffff" stop-opacity="1"></stop></linearGradient></defs><g transform="translate(1000, 0)"><path d="M0 524.8C-37.1 482.9 -74.3 441 -113.9 425C-153.5 409 -195.5 418.8 -240.5 416.6C-285.5 414.4 -333.4 400.2 -371.1 371.1C-408.8 342 -436.2 298 -433.9 250.5C-431.5 203 -399.4 152.1 -409.6 109.7C-419.7 67.4 -472.3 33.7 -524.8 0L0 0Z" fill="#f3a530"></path></g><g transform="translate(0, 600)"><path d="M0 -524.8C39.1 -495.6 78.1 -466.5 122.4 -456.9C166.7 -447.3 216.2 -457.3 256.5 -444.3C296.8 -431.2 327.8 -395.1 362.7 -362.7C397.7 -330.3 436.7 -301.6 454.5 -262.4C472.3 -223.1 469 -173.3 477.2 -127.9C485.4 -82.4 505.1 -41.2 524.8 0L0 0Z" fill="#f3a530"></path></g></svg>