<svg id="visual" viewBox="0 0 2000 300" width="2000" height="300" xmlns="http://www.w3.org/2000/svg" xmlns:xlink="http://www.w3.org/1999/xlink" version="1.1"><path d="M0 92L25.7 93.5C51.3 95 102.7 98 154 116.3C205.3 134.7 256.7 168.3 308 181.5C359.3 194.7 410.7 187.3 461.8 172.7C513 158 564 136 615.2 128C666.3 120 717.7 126 769 130.8C820.3 135.7 871.7 139.3 923 133.7C974.3 128 1025.7 113 1077 105C1128.3 97 1179.7 96 1231 98.2C1282.3 100.3 1333.7 105.7 1384.8 117.3C1436 129 1487 147 1538.2 150C1589.3 153 1640.7 141 1692 139.7C1743.3 138.3 1794.7 147.7 1846 154.5C1897.3 161.3 1948.7 165.7 1974.3 167.8L2000 170L2000 301L1974.3 301C1948.7 301 1897.3 301 1846 301C1794.7 301 1743.3 301 1692 301C1640.7 301 1589.3 301 1538.2 301C1487 301 1436 301 1384.8 301C1333.7 301 1282.3 301 1231 301C1179.7 301 1128.3 301 1077 301C1025.7 301 974.3 301 923 301C871.7 301 820.3 301 769 301C717.7 301 666.3 301 615.2 301C564 301 513 301 461.8 301C410.7 301 359.3 301 308 301C256.7 301 205.3 301 154 301C102.7 301 51.3 301 25.7 301L0 301Z" fill="#49aab7"></path><path d="M0 152L25.7 162C51.3 172 102.7 192 154 203.8C205.3 215.7 256.7 219.3 308 221.2C359.3 223 410.7 223 461.8 211C513 199 564 175 615.2 166C666.3 157 717.7 163 769 161.3C820.3 159.7 871.7 150.3 923 156.5C974.3 162.7 1025.7 184.3 1077 185.2C1128.3 186 1179.7 166 1231 155C1282.3 144 1333.7 142 1384.8 143.3C1436 144.7 1487 149.3 1538.2 150.7C1589.3 152 1640.7 150 1692 156.5C1743.3 163 1794.7 178 1846 191C1897.3 204 1948.7 215 1974.3 220.5L2000 226L2000 301L1974.3 301C1948.7 301 1897.3 301 1846 301C1794.7 301 1743.3 301 1692 301C1640.7 301 1589.3 301 1538.2 301C1487 301 1436 301 1384.8 301C1333.7 301 1282.3 301 1231 301C1179.7 301 1128.3 301 1077 301C1025.7 301 974.3 301 923 301C871.7 301 820.3 301 769 301C717.7 301 666.3 301 615.2 301C564 301 513 301 461.8 301C410.7 301 359.3 301 308 301C256.7 301 205.3 301 154 301C102.7 301 51.3 301 25.7 301L0 301Z" fill="#0082b4"></path><path d="M0 214L25.7 214.2C51.3 214.3 102.7 214.7 154 214.7C205.3 214.7 256.7 214.3 308 207.5C359.3 200.7 410.7 187.3 461.8 189.2C513 191 564 208 615.2 217.7C666.3 227.3 717.7 229.7 769 224.2C820.3 218.7 871.7 205.3 923 196.8C974.3 188.3 1025.7 184.7 1077 191.2C1128.3 197.7 1179.7 214.3 1231 221.3C1282.3 228.3 1333.7 225.7 1384.8 223.8C1436 222 1487 221 1538.2 221C1589.3 221 1640.7 222 1692 220C1743.3 218 1794.7 213 1846 216.7C1897.3 220.3 1948.7 232.7 1974.3 238.8L2000 245L2000 301L1974.3 301C1948.7 301 1897.3 301 1846 301C1794.7 301 1743.3 301 1692 301C1640.7 301 1589.3 301 1538.2 301C1487 301 1436 301 1384.8 301C1333.7 301 1282.3 301 1231 301C1179.7 301 1128.3 301 1077 301C1025.7 301 974.3 301 923 301C871.7 301 820.3 301 769 301C717.7 301 666.3 301 615.2 301C564 301 513 301 461.8 301C410.7 301 359.3 301 308 301C256.7 301 205.3 301 154 301C102.7 301 51.3 301 25.7 301L0 301Z" fill="#0054a2"></path><path d="M0 237L25.7 240.3C51.3 243.7 102.7 250.3 154 252.2C205.3 254 256.7 251 308 248.3C359.3 245.7 410.7 243.3 461.8 242.5C513 241.7 564 242.3 615.2 240.5C666.3 238.7 717.7 234.3 769 237.5C820.3 240.7 871.7 251.3 923 255.5C974.3 259.7 1025.7 257.3 1077 257.2C1128.3 257 1179.7 259 1231 257.2C1282.3 255.3 1333.7 249.7 1384.8 246.2C1436 242.7 1487 241.3 1538.2 241.5C1589.3 241.7 1640.7 243.3 1692 241.5C1743.3 239.7 1794.7 234.3 1846 236.3C1897.3 238.3 1948.7 247.7 1974.3 252.3L2000 257L2000 301L1974.3 301C1948.7 301 1897.3 301 1846 301C1794.7 301 1743.3 301 1692 301C1640.7 301 1589.3 301 1538.2 301C1487 301 1436 301 1384.8 301C1333.7 301 1282.3 301 1231 301C1179.7 301 1128.3 301 1077 301C1025.7 301 974.3 301 923 301C871.7 301 820.3 301 769 301C717.7 301 666.3 301 615.2 301C564 301 513 301 461.8 301C410.7 301 359.3 301 308 301C256.7 301 205.3 301 154 301C102.7 301 51.3 301 25.7 301L0 301Z" fill="#132080"></path></svg>