<svg id="visual" viewBox="0 0 2000 720" width="2000" height="720" xmlns="http://www.w3.org/2000/svg" xmlns:xlink="http://www.w3.org/1999/xlink" version="1.1"><path d="M0 580L41.7 568.8C83.3 557.7 166.7 535.3 250 523.2C333.3 511 416.7 509 500 517.8C583.3 526.7 666.7 546.3 750 551.2C833.3 556 916.7 546 1000 547.2C1083.3 548.3 1166.7 560.7 1250 566.2C1333.3 571.7 1416.7 570.3 1500 573.3C1583.3 576.3 1666.7 583.7 1750 568.7C1833.3 553.7 1916.7 516.3 1958.3 497.7L2000 479L2000 721L1958.3 721C1916.7 721 1833.3 721 1750 721C1666.7 721 1583.3 721 1500 721C1416.7 721 1333.3 721 1250 721C1166.7 721 1083.3 721 1000 721C916.7 721 833.3 721 750 721C666.7 721 583.3 721 500 721C416.7 721 333.3 721 250 721C166.7 721 83.3 721 41.7 721L0 721Z" fill="#fa7268"></path><path d="M0 531L41.7 542C83.3 553 166.7 575 250 576.5C333.3 578 416.7 559 500 556.7C583.3 554.3 666.7 568.7 750 579C833.3 589.3 916.7 595.7 1000 586.8C1083.3 578 1166.7 554 1250 551.7C1333.3 549.3 1416.7 568.7 1500 581.2C1583.3 593.7 1666.7 599.3 1750 588.8C1833.3 578.3 1916.7 551.7 1958.3 538.3L2000 525L2000 721L1958.3 721C1916.7 721 1833.3 721 1750 721C1666.7 721 1583.3 721 1500 721C1416.7 721 1333.3 721 1250 721C1166.7 721 1083.3 721 1000 721C916.7 721 833.3 721 750 721C666.7 721 583.3 721 500 721C416.7 721 333.3 721 250 721C166.7 721 83.3 721 41.7 721L0 721Z" fill="#ef5f67"></path><path d="M0 553L41.7 566.8C83.3 580.7 166.7 608.3 250 616.5C333.3 624.7 416.7 613.3 500 600.3C583.3 587.3 666.7 572.7 750 570C833.3 567.3 916.7 576.7 1000 584.8C1083.3 593 1166.7 600 1250 596.3C1333.3 592.7 1416.7 578.3 1500 583.5C1583.3 588.7 1666.7 613.3 1750 627.3C1833.3 641.3 1916.7 644.7 1958.3 646.3L2000 648L2000 721L1958.3 721C1916.7 721 1833.3 721 1750 721C1666.7 721 1583.3 721 1500 721C1416.7 721 1333.3 721 1250 721C1166.7 721 1083.3 721 1000 721C916.7 721 833.3 721 750 721C666.7 721 583.3 721 500 721C416.7 721 333.3 721 250 721C166.7 721 83.3 721 41.7 721L0 721Z" fill="#e34c67"></path><path d="M0 614L41.7 615.2C83.3 616.3 166.7 618.7 250 628.5C333.3 638.3 416.7 655.7 500 660.5C583.3 665.3 666.7 657.7 750 648.8C833.3 640 916.7 630 1000 626.7C1083.3 623.3 1166.7 626.7 1250 626.8C1333.3 627 1416.7 624 1500 624.3C1583.3 624.7 1666.7 628.3 1750 635.8C1833.3 643.3 1916.7 654.7 1958.3 660.3L2000 666L2000 721L1958.3 721C1916.7 721 1833.3 721 1750 721C1666.7 721 1583.3 721 1500 721C1416.7 721 1333.3 721 1250 721C1166.7 721 1083.3 721 1000 721C916.7 721 833.3 721 750 721C666.7 721 583.3 721 500 721C416.7 721 333.3 721 250 721C166.7 721 83.3 721 41.7 721L0 721Z" fill="#d53867"></path><path d="M0 699L41.7 692.7C83.3 686.3 166.7 673.7 250 672.5C333.3 671.3 416.7 681.7 500 681C583.3 680.3 666.7 668.7 750 664.3C833.3 660 916.7 663 1000 660.2C1083.3 657.3 1166.7 648.7 1250 652.3C1333.3 656 1416.7 672 1500 681.3C1583.3 690.7 1666.7 693.3 1750 695.3C1833.3 697.3 1916.7 698.7 1958.3 699.3L2000 700L2000 721L1958.3 721C1916.7 721 1833.3 721 1750 721C1666.7 721 1583.3 721 1500 721C1416.7 721 1333.3 721 1250 721C1166.7 721 1083.3 721 1000 721C916.7 721 833.3 721 750 721C666.7 721 583.3 721 500 721C416.7 721 333.3 721 250 721C166.7 721 83.3 721 41.7 721L0 721Z" fill="#c62368"></path></svg>