<svg id="visual" viewBox="0 0 2000 200" width="2000" height="200" xmlns="http://www.w3.org/2000/svg" xmlns:xlink="http://www.w3.org/1999/xlink" version="1.1"><path d="M0 29L47.7 28.2C95.3 27.3 190.7 25.7 285.8 21.8C381 18 476 12 571.2 12.5C666.3 13 761.7 20 857 21.8C952.3 23.7 1047.7 20.3 1143 21.8C1238.3 23.3 1333.7 29.7 1428.8 33C1524 36.3 1619 36.7 1714.2 36C1809.3 35.3 1904.7 33.7 1952.3 32.8L2000 32L2000 0L1952.3 0C1904.7 0 1809.3 0 1714.2 0C1619 0 1524 0 1428.8 0C1333.7 0 1238.3 0 1143 0C1047.7 0 952.3 0 857 0C761.7 0 666.3 0 571.2 0C476 0 381 0 285.8 0C190.7 0 95.3 0 47.7 0L0 0Z" fill="#fa7268"></path><path d="M0 13L47.7 11.7C95.3 10.3 190.7 7.7 285.8 5.5C381 3.3 476 1.7 571.2 3.7C666.3 5.7 761.7 11.3 857 14.8C952.3 18.3 1047.7 19.7 1143 18C1238.3 16.3 1333.7 11.7 1428.8 11.3C1524 11 1619 15 1714.2 15C1809.3 15 1904.7 11 1952.3 9L2000 7L2000 0L1952.3 0C1904.7 0 1809.3 0 1714.2 0C1619 0 1524 0 1428.8 0C1333.7 0 1238.3 0 1143 0C1047.7 0 952.3 0 857 0C761.7 0 666.3 0 571.2 0C476 0 381 0 285.8 0C190.7 0 95.3 0 47.7 0L0 0Z" fill="#c62368"></path></svg>