<svg id="visual" viewBox="0 0 2000 900" width="2000" height="900" xmlns="http://www.w3.org/2000/svg" xmlns:xlink="http://www.w3.org/1999/xlink" version="1.1"><path d="M0 368L47.7 344.7C95.3 321.3 190.7 274.7 285.8 268.8C381 263 476 298 571.2 305C666.3 312 761.7 291 857 282.3C952.3 273.7 1047.7 277.3 1143 287.8C1238.3 298.3 1333.7 315.7 1428.8 327.5C1524 339.3 1619 345.7 1714.2 340.3C1809.3 335 1904.7 318 1952.3 309.5L2000 301L2000 0L1952.3 0C1904.7 0 1809.3 0 1714.2 0C1619 0 1524 0 1428.8 0C1333.7 0 1238.3 0 1143 0C1047.7 0 952.3 0 857 0C761.7 0 666.3 0 571.2 0C476 0 381 0 285.8 0C190.7 0 95.3 0 47.7 0L0 0Z" fill="#fa7268"></path><path d="M0 251L47.7 240.7C95.3 230.3 190.7 209.7 285.8 198.5C381 187.3 476 185.7 571.2 188.8C666.3 192 761.7 200 857 202.7C952.3 205.3 1047.7 202.7 1143 207.2C1238.3 211.7 1333.7 223.3 1428.8 240.8C1524 258.3 1619 281.7 1714.2 276.3C1809.3 271 1904.7 237 1952.3 220L2000 203L2000 0L1952.3 0C1904.7 0 1809.3 0 1714.2 0C1619 0 1524 0 1428.8 0C1333.7 0 1238.3 0 1143 0C1047.7 0 952.3 0 857 0C761.7 0 666.3 0 571.2 0C476 0 381 0 285.8 0C190.7 0 95.3 0 47.7 0L0 0Z" fill="#ef5f67"></path><path d="M0 188L47.7 182.2C95.3 176.3 190.7 164.7 285.8 169.5C381 174.3 476 195.7 571.2 197.5C666.3 199.3 761.7 181.7 857 182.7C952.3 183.7 1047.7 203.3 1143 200.2C1238.3 197 1333.7 171 1428.8 168.2C1524 165.3 1619 185.7 1714.2 192C1809.3 198.3 1904.7 190.7 1952.3 186.8L2000 183L2000 0L1952.3 0C1904.7 0 1809.3 0 1714.2 0C1619 0 1524 0 1428.8 0C1333.7 0 1238.3 0 1143 0C1047.7 0 952.3 0 857 0C761.7 0 666.3 0 571.2 0C476 0 381 0 285.8 0C190.7 0 95.3 0 47.7 0L0 0Z" fill="#e34c67"></path><path d="M0 156L47.7 150.5C95.3 145 190.7 134 285.8 133.5C381 133 476 143 571.2 138.7C666.3 134.3 761.7 115.7 857 107C952.3 98.3 1047.7 99.7 1143 97.8C1238.3 96 1333.7 91 1428.8 101.8C1524 112.7 1619 139.3 1714.2 139.3C1809.3 139.3 1904.7 112.7 1952.3 99.3L2000 86L2000 0L1952.3 0C1904.7 0 1809.3 0 1714.2 0C1619 0 1524 0 1428.8 0C1333.7 0 1238.3 0 1143 0C1047.7 0 952.3 0 857 0C761.7 0 666.3 0 571.2 0C476 0 381 0 285.8 0C190.7 0 95.3 0 47.7 0L0 0Z" fill="#d53867"></path><path d="M0 79L47.7 75.8C95.3 72.7 190.7 66.3 285.8 64.5C381 62.7 476 65.3 571.2 67.2C666.3 69 761.7 70 857 72.3C952.3 74.7 1047.7 78.3 1143 75.7C1238.3 73 1333.7 64 1428.8 60.5C1524 57 1619 59 1714.2 57.2C1809.3 55.3 1904.7 49.7 1952.3 46.8L2000 44L2000 0L1952.3 0C1904.7 0 1809.3 0 1714.2 0C1619 0 1524 0 1428.8 0C1333.7 0 1238.3 0 1143 0C1047.7 0 952.3 0 857 0C761.7 0 666.3 0 571.2 0C476 0 381 0 285.8 0C190.7 0 95.3 0 47.7 0L0 0Z" fill="#c62368"></path></svg>