<svg id="visual" viewBox="0 0 1000 900" width="1000" height="900" xmlns="http://www.w3.org/2000/svg" xmlns:xlink="http://www.w3.org/1999/xlink" version="1.1"><rect x="0" y="0" width="1000" height="900" fill="#FFFFFF"></rect><defs><linearGradient id="grad1_0" x1="10%" y1="0%" x2="100%" y2="100%"><stop offset="27.777777777777775%" stop-color="#ffffff" stop-opacity="1"></stop><stop offset="72.22222222222223%" stop-color="#ffffff" stop-opacity="1"></stop></linearGradient></defs><defs><linearGradient id="grad2_0" x1="0%" y1="0%" x2="90%" y2="100%"><stop offset="27.777777777777775%" stop-color="#ffffff" stop-opacity="1"></stop><stop offset="72.22222222222223%" stop-color="#ffffff" stop-opacity="1"></stop></linearGradient></defs><g transform="translate(1000, 0)"><path d="M0 672.7C-60.6 660.5 -121.3 648.3 -163.8 611.4C-206.4 574.6 -230.9 513 -285.5 494.5C-340.1 476 -424.8 500.6 -475.7 475.7C-526.5 450.7 -543.5 376.1 -539.5 311.5C-535.6 246.9 -510.6 192.1 -529.3 141.8C-548 91.6 -610.4 45.8 -672.7 0L0 0Z" fill="#FBAE3C"></path></g><g transform="translate(0, 900)"><path d="M0 -672.7C56.6 -648.8 113.3 -624.9 158.1 -590.2C203 -555.5 236.1 -509.9 277 -479.8C317.9 -449.6 366.5 -434.8 408.7 -408.7C450.9 -382.6 486.6 -345.3 530 -306C573.5 -266.7 624.7 -225.4 649.8 -174.1C674.8 -122.8 673.8 -61.4 672.7 0L0 0Z" fill="#FBAE3C"></path></g></svg>