<svg id="visual" viewBox="0 0 2000 1000" width="2000" height="1000" xmlns="http://www.w3.org/2000/svg" xmlns:xlink="http://www.w3.org/1999/xlink" version="1.1"><path d="M0 574L47.7 602C95.3 630 190.7 686 285.8 710C381 734 476 726 571.2 720.5C666.3 715 761.7 712 857 709.2C952.3 706.3 1047.7 703.7 1143 695.3C1238.3 687 1333.7 673 1428.8 649.2C1524 625.3 1619 591.7 1714.2 568C1809.3 544.3 1904.7 530.7 1952.3 523.8L2000 517L2000 1001L1952.3 1001C1904.7 1001 1809.3 1001 1714.2 1001C1619 1001 1524 1001 1428.8 1001C1333.7 1001 1238.3 1001 1143 1001C1047.7 1001 952.3 1001 857 1001C761.7 1001 666.3 1001 571.2 1001C476 1001 381 1001 285.8 1001C190.7 1001 95.3 1001 47.7 1001L0 1001Z" fill="#fa7268"></path><path d="M0 707L47.7 731.5C95.3 756 190.7 805 285.8 835C381 865 476 876 571.2 850.8C666.3 825.7 761.7 764.3 857 741.7C952.3 719 1047.7 735 1143 748.7C1238.3 762.3 1333.7 773.7 1428.8 792C1524 810.3 1619 835.7 1714.2 810.5C1809.3 785.3 1904.7 709.7 1952.3 671.8L2000 634L2000 1001L1952.3 1001C1904.7 1001 1809.3 1001 1714.2 1001C1619 1001 1524 1001 1428.8 1001C1333.7 1001 1238.3 1001 1143 1001C1047.7 1001 952.3 1001 857 1001C761.7 1001 666.3 1001 571.2 1001C476 1001 381 1001 285.8 1001C190.7 1001 95.3 1001 47.7 1001L0 1001Z" fill="#eb5967"></path><path d="M0 780L47.7 790.7C95.3 801.3 190.7 822.7 285.8 840.7C381 858.7 476 873.3 571.2 852C666.3 830.7 761.7 773.3 857 757.3C952.3 741.3 1047.7 766.7 1143 775.3C1238.3 784 1333.7 776 1428.8 801.3C1524 826.7 1619 885.3 1714.2 882C1809.3 878.7 1904.7 813.3 1952.3 780.7L2000 748L2000 1001L1952.3 1001C1904.7 1001 1809.3 1001 1714.2 1001C1619 1001 1524 1001 1428.8 1001C1333.7 1001 1238.3 1001 1143 1001C1047.7 1001 952.3 1001 857 1001C761.7 1001 666.3 1001 571.2 1001C476 1001 381 1001 285.8 1001C190.7 1001 95.3 1001 47.7 1001L0 1001Z" fill="#da3f67"></path><path d="M0 868L47.7 875.8C95.3 883.7 190.7 899.3 285.8 901.8C381 904.3 476 893.7 571.2 898.8C666.3 904 761.7 925 857 942.8C952.3 960.7 1047.7 975.3 1143 957C1238.3 938.7 1333.7 887.3 1428.8 870C1524 852.7 1619 869.3 1714.2 895.3C1809.3 921.3 1904.7 956.7 1952.3 974.3L2000 992L2000 1001L1952.3 1001C1904.7 1001 1809.3 1001 1714.2 1001C1619 1001 1524 1001 1428.8 1001C1333.7 1001 1238.3 1001 1143 1001C1047.7 1001 952.3 1001 857 1001C761.7 1001 666.3 1001 571.2 1001C476 1001 381 1001 285.8 1001C190.7 1001 95.3 1001 47.7 1001L0 1001Z" fill="#c62368"></path></svg>